<?xml version="1.0" standalone="no"?>
<!DOCTYPE svg PUBLIC "-//W3C//DTD SVG 20010904//EN"
 "http://www.w3.org/TR/2001/REC-SVG-20010904/DTD/svg10.dtd">
<svg version="1.0" xmlns="http://www.w3.org/2000/svg"
 width="600.000000pt" height="600.000000pt" viewBox="0 0 600.000000 600.000000"
 preserveAspectRatio="xMidYMid meet">

<g transform="translate(0.000000,600.000000) scale(0.100000,-0.100000)"
fill="#000000" stroke="none">
<path d="M3874 3951 c-2 -2 -4 -10 -4 -18 0 -10 26 -13 115 -13 l115 0 0 -115
c0 -108 1 -115 20 -115 19 0 20 7 20 129 l0 130 -131 3 c-72 2 -133 1 -135 -1z"/>
<path d="M3240 3820 c0 -123 1 -130 20 -130 19 0 20 7 20 115 l0 115 115 0
c96 0 115 3 115 15 0 13 -22 15 -135 15 l-135 0 0 -130z"/>
<path d="M3352 3718 l3 -113 108 0 107 -1 0 113 0 113 -110 0 -111 0 3 -112z
m186 0 l-3 -83 -75 0 -75 0 -3 83 -3 82 81 0 81 0 -3 -82z"/>
<path d="M3420 3715 l0 -45 45 0 45 0 0 45 0 45 -45 0 -45 0 0 -45z"/>
<path d="M3610 3780 c0 -38 4 -50 15 -50 8 0 15 -7 15 -15 0 -8 -7 -15 -15
-15 -8 0 -15 -7 -15 -15 0 -8 7 -15 15 -15 8 0 15 -7 15 -15 0 -8 6 -15 14
-15 7 0 16 -9 19 -20 8 -31 25 -24 29 13 3 28 7 32 36 35 28 3 32 7 32 33 0
19 -5 29 -15 29 -8 0 -15 7 -15 15 0 8 7 15 16 15 11 0 14 8 12 32 -4 46 -28
49 -28 4 0 -29 -4 -36 -20 -36 -16 0 -20 7 -20 36 0 54 -24 37 -28 -19 l-3
-47 35 0 c25 0 36 -4 36 -15 0 -10 -11 -15 -35 -15 -24 0 -35 5 -35 15 0 8 -7
15 -15 15 -11 0 -15 12 -15 50 0 38 -4 50 -15 50 -11 0 -15 -12 -15 -50z"/>
<path d="M3804 3817 c-2 -7 -3 -58 -2 -112 l3 -99 107 -1 107 0 3 108 c2 60 1
111 -1 113 -2 2 -51 4 -108 4 -77 0 -105 -3 -109 -13z m191 -102 l0 -80 -80 0
-80 0 -3 69 c-4 99 -5 97 85 94 l78 -3 0 -80z"/>
<path d="M3870 3715 l0 -45 45 0 45 0 0 45 0 45 -45 0 -45 0 0 -45z"/>
<path d="M3610 3600 c0 -27 -3 -30 -30 -30 -18 0 -33 -6 -36 -15 -4 -9 -19
-15 -35 -15 -19 0 -29 5 -29 15 0 8 -7 15 -15 15 -8 0 -15 -7 -15 -15 0 -8 7
-15 15 -15 8 0 15 -7 15 -15 0 -10 10 -15 30 -15 20 0 30 5 30 15 0 8 5 15 12
15 13 0 88 -76 88 -90 0 -6 7 -10 15 -10 8 0 15 7 15 15 0 10 10 15 30 15 28
0 30 3 30 35 0 26 -4 33 -14 29 -8 -3 -17 -12 -20 -20 -7 -19 -56 -18 -56 1 0
9 -7 18 -15 21 -8 4 -15 12 -15 20 0 8 7 14 15 14 10 0 15 10 15 30 0 20 -5
30 -15 30 -10 0 -15 -10 -15 -30z"/>
<path d="M3740 3615 c0 -8 7 -15 15 -15 8 0 15 7 15 15 0 8 -7 15 -15 15 -8 0
-15 -7 -15 -15z"/>
<path d="M3350 3540 c0 -27 3 -30 30 -30 27 0 30 3 30 30 0 27 -3 30 -30 30
-27 0 -30 -3 -30 -30z"/>
<path d="M3740 3555 c0 -8 7 -15 15 -15 8 0 15 -7 15 -15 0 -8 7 -15 15 -15 8
0 15 -9 15 -20 0 -16 -7 -20 -30 -20 -20 0 -30 -5 -30 -15 0 -9 -9 -15 -21
-15 -24 0 -21 -23 4 -28 10 -2 17 3 17 12 0 11 9 16 30 16 20 0 30 -5 30 -15
0 -8 -7 -15 -15 -15 -8 0 -15 -7 -15 -15 0 -8 7 -15 15 -15 10 0 15 -11 15
-35 0 -32 -2 -35 -30 -35 -20 0 -30 -5 -30 -15 0 -8 7 -15 15 -15 10 0 15 -10
15 -30 0 -27 3 -30 30 -30 21 0 30 5 30 16 0 18 31 15 38 -3 2 -8 -5 -13 -18
-13 -18 0 -21 -5 -18 -32 4 -43 28 -50 28 -8 0 23 5 33 20 37 11 3 20 12 20
19 0 8 7 14 15 14 10 0 15 -11 15 -35 0 -24 -5 -35 -15 -35 -8 0 -15 -7 -15
-15 0 -8 7 -15 15 -15 8 0 15 7 15 15 0 8 7 15 15 15 8 0 15 -7 15 -15 0 -8 7
-15 15 -15 8 0 15 7 15 15 0 8 -7 15 -15 15 -10 0 -15 11 -15 35 0 24 5 35 15
35 8 0 15 -7 15 -15 0 -8 7 -15 15 -15 10 0 15 10 15 30 0 20 -5 30 -15 30
-11 0 -15 12 -15 50 0 38 -4 50 -15 50 -8 0 -15 7 -15 15 0 8 -7 15 -15 15
-10 0 -15 10 -15 30 0 32 23 42 34 15 3 -8 17 -15 31 -15 23 0 25 3 25 50 0
38 -4 50 -15 50 -8 0 -15 7 -15 15 0 10 -10 15 -30 15 -20 0 -30 -5 -30 -15 0
-8 7 -15 15 -15 8 0 15 -7 15 -15 0 -8 7 -15 15 -15 8 0 15 -9 15 -20 0 -11
-7 -20 -15 -20 -8 0 -15 7 -15 15 0 10 -10 15 -29 15 -16 0 -31 -6 -35 -15 -3
-9 -18 -15 -36 -15 -44 0 -38 34 6 38 27 3 30 6 26 32 -4 28 -7 30 -47 30 -38
0 -44 -3 -47 -22 l-3 -23 -20 23 c-23 26 -35 28 -35 7z m160 -130 c0 -8 7 -15
16 -15 9 0 14 -7 12 -17 -2 -12 -13 -18 -31 -18 -20 1 -27 -4 -25 -15 2 -10
17 -16 46 -18 39 -3 42 -5 42 -33 l0 -29 -65 0 c-51 0 -65 3 -65 15 0 8 7 15
15 15 8 0 15 6 15 14 0 8 -7 16 -15 20 -10 4 -15 20 -15 51 0 45 0 45 35 45
24 0 35 -5 35 -15z"/>
<path d="M3109 3483 c-32 -39 -44 -57 -32 -50 13 8 57 67 50 67 -2 0 -10 -8
-18 -17z"/>
<path d="M3542 3488 c5 -15 28 -18 29 -3 0 6 -7 12 -17 13 -10 3 -15 -1 -12
-10z"/>
<path d="M3350 3440 c0 -20 5 -30 15 -30 8 0 15 7 15 15 0 8 9 15 20 15 11 0
20 -7 20 -15 0 -8 7 -15 15 -15 10 0 15 10 15 30 0 29 -1 30 -50 30 -49 0 -50
-1 -50 -30z"/>
<path d="M3580 3455 c0 -8 -9 -15 -20 -15 -11 0 -20 -7 -20 -15 0 -8 9 -15 20
-15 11 0 20 7 20 15 0 8 7 15 15 15 11 0 15 -12 15 -45 0 -33 4 -45 15 -45 8
0 15 7 15 15 0 8 7 15 15 15 8 0 15 -9 15 -20 0 -12 -7 -20 -16 -20 -25 0 -10
-25 18 -28 19 -2 27 2 31 18 4 17 12 21 33 18 15 -2 29 2 31 10 3 8 -6 12 -27
12 -23 0 -33 5 -37 20 -4 14 -14 20 -34 20 -19 0 -29 5 -29 15 0 8 -7 15 -15
15 -8 0 -15 7 -15 15 0 8 -7 15 -15 15 -8 0 -15 -7 -15 -15z"/>
<path d="M3350 3260 l0 -110 110 0 110 0 0 110 0 110 -110 0 -110 0 0 -110z
m190 5 l0 -85 -80 0 -80 0 0 78 c0 43 3 82 7 85 3 4 39 7 80 7 l73 0 0 -85z"/>
<path d="M3420 3265 l0 -45 45 0 45 0 0 45 0 45 -45 0 -45 0 0 -45z"/>
<path d="M3240 3185 l0 -135 135 0 c128 0 135 1 135 20 0 19 -7 20 -115 20
l-115 0 0 115 c0 108 -1 115 -20 115 -19 0 -20 -7 -20 -135z"/>
<path d="M4100 3205 l0 -115 -115 0 c-108 0 -115 -1 -115 -20 0 -19 7 -20 135
-20 l135 0 0 135 c0 128 -1 135 -20 135 -19 0 -20 -7 -20 -115z"/>
<path d="M2224 3297 c-10 -27 1 -170 14 -175 9 -3 12 17 12 77 l0 80 77 3 c50
2 78 7 81 16 6 18 -177 17 -184 -1z"/>
<path d="M2670 3295 c0 -12 16 -15 80 -15 l80 0 0 -81 c0 -60 3 -80 13 -77 14
5 22 104 12 156 l-6 32 -89 0 c-73 0 -90 -3 -90 -15z"/>
<path d="M3610 3265 c0 -8 7 -15 15 -15 8 0 15 -7 15 -15 0 -8 6 -15 14 -15 9
0 16 -12 18 -32 3 -34 24 -50 30 -21 2 12 13 17 32 18 51 0 42 24 -11 27 -36
2 -49 7 -51 21 -2 10 3 17 12 17 9 0 16 7 16 15 0 8 -7 15 -15 15 -8 0 -15 -7
-15 -15 0 -8 -7 -15 -15 -15 -8 0 -15 7 -15 15 0 8 -7 15 -15 15 -8 0 -15 -7
-15 -15z"/>
<path d="M2302 3143 l3 -78 75 0 75 0 3 78 3 77 -81 0 -81 0 3 -77z m136 0
l-3 -58 -55 0 -55 0 -3 44 c-5 66 0 71 63 71 l56 0 -3 -57z"/>
<path d="M2350 3140 c0 -27 3 -30 30 -30 27 0 30 3 30 30 0 27 -3 30 -30 30
-27 0 -30 -3 -30 -30z"/>
<path d="M2493 3185 c0 -22 2 -30 4 -17 2 12 2 30 0 40 -3 9 -5 -1 -4 -23z"/>
<path d="M2530 3193 c0 -16 -11 -39 -27 -55 -15 -15 -21 -28 -15 -28 7 0 12
-7 12 -15 0 -8 -4 -15 -10 -15 -5 0 -7 -7 -4 -15 4 -10 -3 -18 -19 -24 -14 -5
-28 -14 -31 -20 -4 -6 -13 -8 -20 -5 -8 3 -17 1 -21 -5 -4 -7 4 -11 19 -11 13
0 26 6 29 13 2 6 8 9 12 5 4 -4 2 -15 -5 -24 -12 -13 -11 -17 1 -25 12 -8 12
-10 -1 -18 -8 -6 -11 -13 -8 -17 4 -3 15 1 24 11 14 14 15 18 3 25 -7 5 -10
12 -6 16 4 4 15 0 24 -9 13 -13 15 -19 5 -29 -15 -15 -16 -54 -2 -63 6 -3 10
-1 10 4 0 6 7 11 15 11 8 0 15 -4 15 -10 0 -5 -4 -10 -10 -10 -5 0 -10 -4 -10
-10 0 -5 9 -10 20 -10 11 0 20 5 20 10 0 6 9 10 20 10 11 0 20 5 20 10 0 6 7
10 15 10 8 0 15 -9 15 -20 0 -13 -7 -20 -19 -20 -23 0 -36 -16 -21 -25 5 -3
10 -15 10 -26 0 -14 -7 -19 -30 -19 -32 0 -37 9 -18 28 8 8 9 12 1 12 -6 0
-13 -6 -16 -12 -4 -10 -7 -10 -18 0 -19 17 -34 15 -19 -3 10 -12 10 -19 2 -27
-14 -14 -16 -38 -3 -38 5 0 11 9 14 20 3 11 10 20 16 20 6 0 11 -9 11 -20 0
-11 5 -20 10 -20 6 0 10 5 10 10 0 6 9 10 19 10 11 0 23 5 26 10 3 6 15 10 25
10 10 0 20 6 23 13 3 9 7 9 19 -1 11 -9 18 -10 23 -2 10 16 25 12 25 -8 0 -20
18 -42 34 -42 6 0 5 5 -2 12 -15 15 -16 48 -2 48 6 0 10 -4 10 -10 0 -5 5 -10
10 -10 6 0 10 9 10 19 0 11 -4 23 -10 26 -5 3 -10 19 -10 34 0 15 -9 36 -20
46 -21 19 -27 55 -10 55 6 0 10 5 10 10 0 6 -9 10 -19 10 -11 0 -23 -4 -26
-10 -8 -12 -45 -13 -45 -1 0 5 12 12 26 15 36 9 28 40 -11 44 -22 2 -34 -3
-43 -19 -11 -18 -12 -23 -1 -30 10 -6 7 -10 -12 -17 -27 -11 -58 -42 -41 -42
6 0 14 5 17 10 6 10 45 14 45 5 0 -3 -8 -14 -17 -25 -18 -21 -53 -27 -53 -10
0 6 -8 10 -18 10 -10 0 -22 3 -25 7 -11 10 24 43 45 43 11 0 18 7 18 19 0 11
5 23 10 26 6 3 10 12 10 18 0 7 -12 0 -25 -15 -13 -16 -30 -28 -37 -28 -18 0
-50 38 -38 45 6 4 10 15 10 26 0 10 7 19 15 19 8 0 15 -5 15 -11 0 -5 5 -7 10
-4 6 3 10 15 10 26 0 12 7 19 20 19 23 0 28 34 8 44 -10 5 -10 7 0 12 14 7 16
54 2 54 -5 0 -10 -11 -10 -25 0 -14 -4 -25 -10 -25 -5 0 -10 11 -10 25 0 14
-4 25 -10 25 -5 0 -10 -12 -10 -27z m40 -53 c0 -5 -9 -10 -20 -10 -11 0 -20 5
-20 10 0 6 9 10 20 10 11 0 20 -4 20 -10z m127 -209 c13 -22 8 -31 -19 -31
-10 0 -18 -4 -18 -10 0 -5 -4 -10 -10 -10 -5 0 -10 16 -10 35 0 30 3 35 23 35
12 0 28 -9 34 -19z m33 -76 c0 -23 -4 -25 -45 -25 -49 0 -51 1 -33 30 9 13 24
20 45 20 29 0 33 -3 33 -25z"/>
<path d="M2620 3140 l0 -81 78 3 77 3 3 78 3 77 -81 0 -80 0 0 -80z m135 0 l0
-55 -57 -3 -58 -3 0 54 c0 29 3 57 7 61 4 4 30 6 58 4 l50 -3 0 -55z"/>
<path d="M2665 3140 c0 -27 3 -30 33 -30 29 0 32 3 32 30 0 27 -3 30 -32 30
-30 0 -33 -3 -33 -30z"/>
<path d="M3610 3180 c0 -20 5 -30 15 -30 10 0 15 10 15 30 0 20 -5 30 -15 30
-10 0 -15 -10 -15 -30z"/>
<path d="M3770 3165 c0 -8 7 -15 15 -15 8 0 15 7 15 15 0 8 -7 15 -15 15 -8 0
-15 -7 -15 -15z"/>
<path d="M2575 3070 c3 -5 8 -10 11 -10 2 0 4 5 4 10 0 6 -5 10 -11 10 -5 0
-7 -4 -4 -10z"/>
<path d="M2300 3015 c0 -22 4 -26 23 -23 14 2 22 10 22 23 0 13 -8 21 -22 23
-19 3 -23 -1 -23 -23z"/>
<path d="M2370 3030 c0 -5 5 -10 10 -10 6 0 10 5 10 10 0 6 -4 10 -10 10 -5 0
-10 -4 -10 -10z"/>
<path d="M2710 3030 c0 -5 5 -10 10 -10 6 0 10 -6 10 -14 0 -8 6 -17 13 -20
10 -5 10 -7 0 -12 -20 -9 -15 -24 7 -24 28 0 38 45 15 70 -19 21 -55 27 -55
10z"/>
<path d="M2300 2950 c0 -22 10 -26 27 -9 8 8 13 8 17 0 11 -18 26 -13 26 9 0
16 -7 20 -35 20 -28 0 -35 -4 -35 -20z"/>
<path d="M2300 2825 l0 -75 80 0 80 0 0 75 0 75 -80 0 -80 0 0 -75z m140 0 l0
-55 -60 0 -60 0 0 48 c0 27 3 52 7 55 3 4 30 7 60 7 l53 0 0 -55z"/>
<path d="M2350 2825 c0 -32 2 -35 30 -35 28 0 30 3 30 35 0 32 -2 35 -30 35
-28 0 -30 -3 -30 -35z"/>
<path d="M2227 2803 c-2 -32 -4 -74 -2 -93 l2 -35 91 -3 c77 -2 92 0 92 13 0
12 -15 15 -80 15 l-80 0 0 80 c0 92 -15 107 -23 23z"/>
<path d="M2830 2781 l0 -81 -81 0 c-60 0 -80 -3 -77 -12 6 -19 178 -24 190 -6
6 10 8 10 8 1 0 -17 53 -43 86 -43 26 0 27 -1 9 -20 -14 -15 -3 -13 58 13 41
18 85 40 98 50 l24 18 -25 -6 c-14 -3 -61 -15 -104 -26 -87 -22 -129 -16 -141
22 -4 10 -10 19 -15 19 -4 0 -7 32 -6 71 1 50 -3 73 -11 76 -10 4 -13 -16 -13
-76z"/>
<path d="M2640 2770 c0 -11 5 -20 10 -20 6 0 10 9 10 20 0 11 -4 20 -10 20 -5
0 -10 -9 -10 -20z"/>
<path d="M2600 2760 c0 -5 5 -10 10 -10 6 0 10 5 10 10 0 6 -4 10 -10 10 -5 0
-10 -4 -10 -10z"/>
<path d="M2690 2760 c0 -5 5 -10 10 -10 6 0 10 5 10 10 0 6 -4 10 -10 10 -5 0
-10 -4 -10 -10z"/>
<path d="M1031 2678 c-1 -4 10 -37 24 -73 13 -36 23 -65 21 -65 -2 0 16 -62
41 -137 24 -76 51 -163 59 -193 8 -30 21 -68 28 -85 23 -49 34 -79 40 -105 4
-14 13 -50 22 -80 8 -30 18 -64 20 -75 3 -11 7 -49 10 -85 2 -36 5 -76 7 -90
2 -14 -1 -38 -6 -55 -21 -70 3 -99 103 -120 67 -14 75 -14 163 9 50 13 125 29
164 36 73 13 73 13 79 49 3 20 10 49 15 65 11 36 12 56 1 39 -15 -25 -217 138
-363 292 -162 171 -339 449 -416 650 -6 17 -11 27 -12 23z"/>
<path d="M1791 2500 c0 -8 4 -24 9 -35 5 -13 9 -14 9 -5 0 8 -4 24 -9 35 -5
13 -9 14 -9 5z"/>
<path d="M3115 2484 c-111 -29 -126 -29 -159 -3 -14 11 -26 16 -26 11 0 -13
31 -39 58 -46 12 -4 22 -12 22 -18 0 -26 182 38 194 68 3 8 4 14 3 13 -1 0
-42 -12 -92 -25z"/>
<path d="M1821 2392 c0 -8 6 -38 14 -66 19 -63 50 -94 91 -90 50 6 54 7 54 16
0 5 4 6 10 3 6 -4 9 5 8 19 -1 15 -7 26 -13 26 -5 0 -4 4 4 9 8 5 -3 9 -32 9
-48 1 -121 42 -130 72 -3 11 -5 11 -6 2z"/>
<path d="M2052 2274 c-1 -47 -7 -86 -14 -95 -19 -22 -53 -47 -44 -32 5 9 2 11
-8 7 -9 -3 -16 -9 -16 -13 0 -4 -10 -18 -22 -31 -13 -14 -22 -28 -21 -32 2 -5
-3 -8 -10 -8 -13 0 -53 -147 -43 -158 3 -3 6 0 6 6 0 6 7 9 17 5 11 -4 14 -3
9 5 -5 9 5 10 37 6 32 -5 62 0 107 15 53 19 70 20 118 12 32 -6 93 -13 137
-16 215 -17 326 -55 340 -117 6 -31 8 -27 26 47 11 44 28 92 40 108 l20 27
-292 0 c-379 0 -369 -6 -379 215 -5 104 -7 114 -8 49z"/>
<path d="M2993 2256 c15 -14 33 -26 39 -26 13 0 14 0 -32 29 l-35 23 28 -26z"/>
<path d="M4435 1933 c-103 -99 -260 -221 -371 -287 l-49 -30 100 -12 c92 -11
316 -47 375 -59 15 -3 19 -2 10 2 -8 5 -16 22 -18 38 -1 17 -5 37 -9 45 -5 13
-11 50 -14 85 -2 33 9 144 17 156 4 8 10 19 11 24 10 41 39 113 51 128 34 39
1 11 -103 -90z"/>
<path d="M1771 1484 c0 -11 3 -14 6 -6 3 7 2 16 -1 19 -3 4 -6 -2 -5 -13z"/>
<path d="M1741 1354 c0 -11 3 -14 6 -6 3 7 2 16 -1 19 -3 4 -6 -2 -5 -13z"/>
</g>
</svg>
